<svg xmlns="http://www.w3.org/2000/svg" viewBox="0 0 100 100">
  <circle cx="50" cy="50" r="48" fill="#FF6600" stroke="#CC4400" stroke-width="2"/>
  <!-- Central node -->
  <circle cx="50" cy="50" r="10" fill="white"/>
  <!-- Peer nodes -->
  <circle cx="50" cy="18" r="7" fill="white" opacity="0.9"/>
  <circle cx="50" cy="82" r="7" fill="white" opacity="0.9"/>
  <circle cx="18" cy="50" r="7" fill="white" opacity="0.9"/>
  <circle cx="82" cy="50" r="7" fill="white" opacity="0.9"/>
  <circle cx="26" cy="26" r="6" fill="white" opacity="0.75"/>
  <circle cx="74" cy="26" r="6" fill="white" opacity="0.75"/>
  <circle cx="26" cy="74" r="6" fill="white" opacity="0.75"/>
  <circle cx="74" cy="74" r="6" fill="white" opacity="0.75"/>
  <!-- Connection lines -->
  <line x1="50" y1="50" x2="50" y2="25" stroke="white" stroke-width="2" opacity="0.6"/>
  <line x1="50" y1="50" x2="50" y2="75" stroke="white" stroke-width="2" opacity="0.6"/>
  <line x1="50" y1="50" x2="25" y2="50" stroke="white" stroke-width="2" opacity="0.6"/>
  <line x1="50" y1="50" x2="75" y2="50" stroke="white" stroke-width="2" opacity="0.6"/>
  <line x1="50" y1="50" x2="30" y2="30" stroke="white" stroke-width="1.5" opacity="0.5"/>
  <line x1="50" y1="50" x2="70" y2="30" stroke="white" stroke-width="1.5" opacity="0.5"/>
  <line x1="50" y1="50" x2="30" y2="70" stroke="white" stroke-width="1.5" opacity="0.5"/>
  <line x1="50" y1="50" x2="70" y2="70" stroke="white" stroke-width="1.5" opacity="0.5"/>
</svg>
